<svg xmlns="http://www.w3.org/2000/svg" xmlns:xlink="http://www.w3.org/1999/xlink" xmlns:inkscape="http://www.inkscape.org/namespaces/inkscape" version="1.1" width="507.321" height="323.995" viewBox="0 0 507.321 323.995">
<defs>
<clipPath id="clip_0">
<path transform="matrix(1,0,0,-1,0,323.995)" d="M0 0V323.99919H504.00648V0ZM504.00648 323.99919"/>
</clipPath>
<clipPath id="clip_1">
<path transform="matrix(1,0,0,-1,0,323.995)" d="M122.91066 25.0962V323.99919H504.00648V25.0962ZM504.00648 323.99919"/>
</clipPath>
<clipPath id="clip_2">
<path transform="matrix(1,0,0,-1,0,323.995)" d="M0 0V323.99919H504.00648V0ZM504.00648 323.99919"/>
</clipPath>
<clipPath id="clip_3">
<path transform="matrix(1,0,0,-1,0,323.995)" d="M0 0V323.99919H504.00648V0ZM504.00648 323.99919"/>
</clipPath>
<clipPath id="clip_4">
<path transform="matrix(1,0,0,-1,0,323.995)" d="M0 0V323.99919H504.00648V0ZM504.00648 323.99919"/>
</clipPath>
<clipPath id="clip_5">
<path transform="matrix(1,0,0,-1,0,323.995)" d="M0 0V323.99919H504.00648V0ZM504.00648 323.99919"/>
</clipPath>
<clipPath id="clip_6">
<path transform="matrix(1,0,0,-1,0,323.995)" d="M0 0V323.99919H504.00648V0ZM504.00648 323.99919"/>
</clipPath>
</defs>
<path transform="matrix(1,0,0,-1,0,323.995)" d="M0 0V323.99919H504.00648V0ZM504.00648 323.99919" fill="#ffffff" fill-opacity="0"/>
<g clip-path="url(#clip_0)">
<path transform="matrix(1,0,0,-1,0,323.995)" d="M0 0V323.99919H504.00648V0ZM504.00648 323.99919" fill="#ffffff"/>
<path transform="matrix(1,0,0,-1,0,323.995)" stroke-width=".59776" stroke-linecap="round" stroke-linejoin="round" fill="none" stroke="#ffffff" d="M0 0V323.99919H504.00648V0ZM504.00648 323.99919"/>
</g>
<g clip-path="url(#clip_1)">
<path transform="matrix(1,0,0,-1,0,323.995)" stroke-width=".29887" stroke-linecap="butt" stroke-linejoin="round" fill="none" stroke="#ffffff" d="M161.357 25.0962V323.99919"/>
<path transform="matrix(1,0,0,-1,0,323.995)" stroke-width=".29887" stroke-linecap="butt" stroke-linejoin="round" fill="none" stroke="#ffffff" d="M203.60909 25.0962V323.99919"/>
<path transform="matrix(1,0,0,-1,0,323.995)" stroke-width=".29887" stroke-linecap="butt" stroke-linejoin="round" fill="none" stroke="#ffffff" d="M245.86119 25.0962V323.99919"/>
<path transform="matrix(1,0,0,-1,0,323.995)" stroke-width=".29887" stroke-linecap="butt" stroke-linejoin="round" fill="none" stroke="#ffffff" d="M288.10334 25.0962V323.99919"/>
<path transform="matrix(1,0,0,-1,0,323.995)" stroke-width=".29887" stroke-linecap="butt" stroke-linejoin="round" fill="none" stroke="#ffffff" d="M330.35545 25.0962V323.99919"/>
<path transform="matrix(1,0,0,-1,0,323.995)" stroke-width=".29887" stroke-linecap="butt" stroke-linejoin="round" fill="none" stroke="#ffffff" d="M372.60755 25.0962V323.99919"/>
<path transform="matrix(1,0,0,-1,0,323.995)" stroke-width=".29887" stroke-linecap="butt" stroke-linejoin="round" fill="none" stroke="#ffffff" d="M414.85963 25.0962V323.99919"/>
<path transform="matrix(1,0,0,-1,0,323.995)" stroke-width=".29887" stroke-linecap="butt" stroke-linejoin="round" fill="none" stroke="#ffffff" d="M457.11174 25.0962V323.99919"/>
<path transform="matrix(1,0,0,-1,0,323.995)" stroke-width=".29887" stroke-linecap="butt" stroke-linejoin="round" fill="none" stroke="#ffffff" d="M499.36384 25.0962V323.99919"/>
<path transform="matrix(1,0,0,-1,0,323.995)" stroke-width=".59776" stroke-linecap="butt" stroke-linejoin="round" fill="none" stroke="#ffffff" d="M122.91066 34.43132H504.00648"/>
<path transform="matrix(1,0,0,-1,0,323.995)" stroke-width=".59776" stroke-linecap="butt" stroke-linejoin="round" fill="none" stroke="#ffffff" d="M122.91066 50.00313H504.00648"/>
<path transform="matrix(1,0,0,-1,0,323.995)" stroke-width=".59776" stroke-linecap="butt" stroke-linejoin="round" fill="none" stroke="#ffffff" d="M122.91066 65.56497H504.00648"/>
<path transform="matrix(1,0,0,-1,0,323.995)" stroke-width=".59776" stroke-linecap="butt" stroke-linejoin="round" fill="none" stroke="#ffffff" d="M122.91066 81.13678H504.00648"/>
<path transform="matrix(1,0,0,-1,0,323.995)" stroke-width=".59776" stroke-linecap="butt" stroke-linejoin="round" fill="none" stroke="#ffffff" d="M122.91066 96.70859H504.00648"/>
<path transform="matrix(1,0,0,-1,0,323.995)" stroke-width=".59776" stroke-linecap="butt" stroke-linejoin="round" fill="none" stroke="#ffffff" d="M122.91066 112.27043H504.00648"/>
<path transform="matrix(1,0,0,-1,0,323.995)" stroke-width=".59776" stroke-linecap="butt" stroke-linejoin="round" fill="none" stroke="#ffffff" d="M122.91066 127.84224H504.00648"/>
<path transform="matrix(1,0,0,-1,0,323.995)" stroke-width=".59776" stroke-linecap="butt" stroke-linejoin="round" fill="none" stroke="#ffffff" d="M122.91066 143.41405H504.00648"/>
<path transform="matrix(1,0,0,-1,0,323.995)" stroke-width=".59776" stroke-linecap="butt" stroke-linejoin="round" fill="none" stroke="#ffffff" d="M122.91066 158.97589H504.00648"/>
<path transform="matrix(1,0,0,-1,0,323.995)" stroke-width=".59776" stroke-linecap="butt" stroke-linejoin="round" fill="none" stroke="#ffffff" d="M122.91066 174.5477H504.00648"/>
<path transform="matrix(1,0,0,-1,0,323.995)" stroke-width=".59776" stroke-linecap="butt" stroke-linejoin="round" fill="none" stroke="#ffffff" d="M122.91066 190.1195H504.00648"/>
<path transform="matrix(1,0,0,-1,0,323.995)" stroke-width=".59776" stroke-linecap="butt" stroke-linejoin="round" fill="none" stroke="#ffffff" d="M122.91066 205.68135H504.00648"/>
<path transform="matrix(1,0,0,-1,0,323.995)" stroke-width=".59776" stroke-linecap="butt" stroke-linejoin="round" fill="none" stroke="#ffffff" d="M122.91066 221.25316H504.00648"/>
<path transform="matrix(1,0,0,-1,0,323.995)" stroke-width=".59776" stroke-linecap="butt" stroke-linejoin="round" fill="none" stroke="#ffffff" d="M122.91066 236.82497H504.00648"/>
<path transform="matrix(1,0,0,-1,0,323.995)" stroke-width=".59776" stroke-linecap="butt" stroke-linejoin="round" fill="none" stroke="#ffffff" d="M122.91066 252.38681H504.00648"/>
<path transform="matrix(1,0,0,-1,0,323.995)" stroke-width=".59776" stroke-linecap="butt" stroke-linejoin="round" fill="none" stroke="#ffffff" d="M122.91066 267.95863H504.00648"/>
<path transform="matrix(1,0,0,-1,0,323.995)" stroke-width=".59776" stroke-linecap="butt" stroke-linejoin="round" fill="none" stroke="#ffffff" d="M122.91066 283.53044H504.00648"/>
<path transform="matrix(1,0,0,-1,0,323.995)" stroke-width=".59776" stroke-linecap="butt" stroke-linejoin="round" fill="none" stroke="#ffffff" d="M122.91066 299.0923H504.00648"/>
<path transform="matrix(1,0,0,-1,0,323.995)" stroke-width=".59776" stroke-linecap="butt" stroke-linejoin="round" fill="none" stroke="#ffffff" d="M122.91066 314.6641H504.00648"/>
<path transform="matrix(1,0,0,-1,0,323.995)" stroke-width=".59776" stroke-linecap="butt" stroke-linejoin="round" fill="none" stroke="#ffffff" d="M140.23592 25.0962V323.99919"/>
<path transform="matrix(1,0,0,-1,0,323.995)" stroke-width=".59776" stroke-linecap="butt" stroke-linejoin="round" fill="none" stroke="#ffffff" d="M182.47806 25.0962V323.99919"/>
<path transform="matrix(1,0,0,-1,0,323.995)" stroke-width=".59776" stroke-linecap="butt" stroke-linejoin="round" fill="none" stroke="#ffffff" d="M224.73017 25.0962V323.99919"/>
<path transform="matrix(1,0,0,-1,0,323.995)" stroke-width=".59776" stroke-linecap="butt" stroke-linejoin="round" fill="none" stroke="#ffffff" d="M266.98225 25.0962V323.99919"/>
<path transform="matrix(1,0,0,-1,0,323.995)" stroke-width=".59776" stroke-linecap="butt" stroke-linejoin="round" fill="none" stroke="#ffffff" d="M309.23439 25.0962V323.99919"/>
<path transform="matrix(1,0,0,-1,0,323.995)" stroke-width=".59776" stroke-linecap="butt" stroke-linejoin="round" fill="none" stroke="#ffffff" d="M351.48649 25.0962V323.99919"/>
<path transform="matrix(1,0,0,-1,0,323.995)" stroke-width=".59776" stroke-linecap="butt" stroke-linejoin="round" fill="none" stroke="#ffffff" d="M393.7286 25.0962V323.99919"/>
<path transform="matrix(1,0,0,-1,0,323.995)" stroke-width=".59776" stroke-linecap="butt" stroke-linejoin="round" fill="none" stroke="#ffffff" d="M435.9807 25.0962V323.99919"/>
<path transform="matrix(1,0,0,-1,0,323.995)" stroke-width=".59776" stroke-linecap="butt" stroke-linejoin="round" fill="none" stroke="#ffffff" d="M478.23283 25.0962V323.99919"/>
<path transform="matrix(1,0,0,-1,0,323.995)" d="M247.53495 310.58934H255.67453V318.72889H247.53495Z"/>
<path transform="matrix(1,0,0,-1,0,323.995)" d="M354.8738 294.99757H363.07319V303.18699H354.8738Z"/>
<path transform="matrix(1,0,0,-1,0,323.995)" d="M314.00654 280.17298H320.71147V286.8779H314.00654Z"/>
<path transform="matrix(1,0,0,-1,0,323.995)" d="M292.35746 265.0196H298.24546V270.89765H292.35746Z"/>
<path transform="matrix(1,0,0,-1,0,323.995)" d="M315.15226 249.46772H320.99043V255.3059H315.15226Z"/>
<path transform="matrix(1,0,0,-1,0,323.995)" d="M239.0367 232.85977H246.9571V240.78018H239.0367Z"/>
<path transform="matrix(1,0,0,-1,0,323.995)" d="M307.66026 217.00902H316.1585V225.4973H307.66026Z"/>
<path transform="matrix(1,0,0,-1,0,323.995)" d="M231.20597 201.92539H238.72785V209.44727H231.20597Z"/>
<path transform="matrix(1,0,0,-1,0,323.995)" d="M335.8549 186.18422H343.72547V194.04485H335.8549Z"/>
<path transform="matrix(1,0,0,-1,0,323.995)" d="M246.45897 170.2139H255.13654V178.8815H246.45897Z"/>
<path transform="matrix(1,0,0,-1,0,323.995)" d="M204.2766 154.5325H213.16339V163.42925H204.2766Z"/>
<path transform="matrix(1,0,0,-1,0,323.995)" d="M343.0779 142.52736H344.85127V144.30074H343.0779Z"/>
<path transform="matrix(1,0,0,-1,0,323.995)" d="M267.80918 123.34903H276.7956V132.33545H267.80918Z"/>
<path transform="matrix(1,0,0,-1,0,323.995)" d="M254.92733 107.6477H264.17277V116.89316H254.92733Z"/>
<path transform="matrix(1,0,0,-1,0,323.995)" d="M271.26625 92.79321H279.08705V100.62396H271.26625Z"/>
<path transform="matrix(1,0,0,-1,0,323.995)" d="M245.70178 76.95242H254.07053V85.32114H245.70178Z"/>
<path transform="matrix(1,0,0,-1,0,323.995)" d="M232.31183 61.58983H240.28205V69.55008H232.31183Z"/>
<path transform="matrix(1,0,0,-1,0,323.995)" stroke-width=".89664" stroke-linecap="butt" stroke-linejoin="round" fill="none" stroke="#000000" d="M309.80226 312.3328V316.99537"/>
<path transform="matrix(1,0,0,-1,0,323.995)" stroke-width=".89664" stroke-linecap="butt" stroke-linejoin="round" fill="none" stroke="#000000" d="M309.80226 314.6641H193.40723"/>
<path transform="matrix(1,0,0,-1,0,323.995)" stroke-width=".89664" stroke-linecap="butt" stroke-linejoin="round" fill="none" stroke="#000000" d="M193.40723 312.3328V316.99537"/>
<path transform="matrix(1,0,0,-1,0,323.995)" stroke-width=".89664" stroke-linecap="butt" stroke-linejoin="round" fill="none" stroke="#000000" d="M393.58915 296.76097V301.43354"/>
<path transform="matrix(1,0,0,-1,0,323.995)" stroke-width=".89664" stroke-linecap="butt" stroke-linejoin="round" fill="none" stroke="#000000" d="M393.58915 299.0923H324.35786"/>
<path transform="matrix(1,0,0,-1,0,323.995)" stroke-width=".89664" stroke-linecap="butt" stroke-linejoin="round" fill="none" stroke="#000000" d="M324.35786 296.76097V301.43354"/>
<path transform="matrix(1,0,0,-1,0,323.995)" stroke-width=".89664" stroke-linecap="butt" stroke-linejoin="round" fill="none" stroke="#000000" d="M416.41383 281.18919V285.86174"/>
<path transform="matrix(1,0,0,-1,0,323.995)" stroke-width=".89664" stroke-linecap="butt" stroke-linejoin="round" fill="none" stroke="#000000" d="M416.41383 283.53044H218.30417"/>
<path transform="matrix(1,0,0,-1,0,323.995)" stroke-width=".89664" stroke-linecap="butt" stroke-linejoin="round" fill="none" stroke="#000000" d="M218.30417 281.18919V285.86174"/>
<path transform="matrix(1,0,0,-1,0,323.995)" stroke-width=".89664" stroke-linecap="butt" stroke-linejoin="round" fill="none" stroke="#000000" d="M341.42408 265.62733V270.2899"/>
<path transform="matrix(1,0,0,-1,0,323.995)" stroke-width=".89664" stroke-linecap="butt" stroke-linejoin="round" fill="none" stroke="#000000" d="M341.42408 267.95863H249.1788"/>
<path transform="matrix(1,0,0,-1,0,323.995)" stroke-width=".89664" stroke-linecap="butt" stroke-linejoin="round" fill="none" stroke="#000000" d="M249.1788 265.62733V270.2899"/>
<path transform="matrix(1,0,0,-1,0,323.995)" stroke-width=".89664" stroke-linecap="butt" stroke-linejoin="round" fill="none" stroke="#000000" d="M379.1431 250.05553V254.72806"/>
<path transform="matrix(1,0,0,-1,0,323.995)" stroke-width=".89664" stroke-linecap="butt" stroke-linejoin="round" fill="none" stroke="#000000" d="M379.1431 252.38681H256.98963"/>
<path transform="matrix(1,0,0,-1,0,323.995)" stroke-width=".89664" stroke-linecap="butt" stroke-linejoin="round" fill="none" stroke="#000000" d="M256.98963 250.05553V254.72806"/>
<path transform="matrix(1,0,0,-1,0,323.995)" stroke-width=".89664" stroke-linecap="butt" stroke-linejoin="round" fill="none" stroke="#000000" d="M271.16664 234.48372V239.15625"/>
<path transform="matrix(1,0,0,-1,0,323.995)" stroke-width=".89664" stroke-linecap="butt" stroke-linejoin="round" fill="none" stroke="#000000" d="M271.16664 236.82497H214.82718"/>
<path transform="matrix(1,0,0,-1,0,323.995)" stroke-width=".89664" stroke-linecap="butt" stroke-linejoin="round" fill="none" stroke="#000000" d="M214.82718 234.48372V239.15625"/>
<path transform="matrix(1,0,0,-1,0,323.995)" stroke-width=".89664" stroke-linecap="butt" stroke-linejoin="round" fill="none" stroke="#000000" d="M356.52763 218.92188V223.58444"/>
<path transform="matrix(1,0,0,-1,0,323.995)" stroke-width=".89664" stroke-linecap="butt" stroke-linejoin="round" fill="none" stroke="#000000" d="M356.52763 221.25316H267.28114"/>
<path transform="matrix(1,0,0,-1,0,323.995)" stroke-width=".89664" stroke-linecap="butt" stroke-linejoin="round" fill="none" stroke="#000000" d="M267.28114 218.92188V223.58444"/>
<path transform="matrix(1,0,0,-1,0,323.995)" stroke-width=".89664" stroke-linecap="butt" stroke-linejoin="round" fill="none" stroke="#000000" d="M312.13356 203.35007V208.0226"/>
<path transform="matrix(1,0,0,-1,0,323.995)" stroke-width=".89664" stroke-linecap="butt" stroke-linejoin="round" fill="none" stroke="#000000" d="M312.13356 205.68135H157.80028"/>
<path transform="matrix(1,0,0,-1,0,323.995)" stroke-width=".89664" stroke-linecap="butt" stroke-linejoin="round" fill="none" stroke="#000000" d="M157.80028 203.35007V208.0226"/>
<path transform="matrix(1,0,0,-1,0,323.995)" stroke-width=".89664" stroke-linecap="butt" stroke-linejoin="round" fill="none" stroke="#000000" d="M376.33363 187.77825V192.45079"/>
<path transform="matrix(1,0,0,-1,0,323.995)" stroke-width=".89664" stroke-linecap="butt" stroke-linejoin="round" fill="none" stroke="#000000" d="M376.33363 190.1195H303.24678"/>
<path transform="matrix(1,0,0,-1,0,323.995)" stroke-width=".89664" stroke-linecap="butt" stroke-linejoin="round" fill="none" stroke="#000000" d="M303.24678 187.77825V192.45079"/>
<path transform="matrix(1,0,0,-1,0,323.995)" stroke-width=".89664" stroke-linecap="butt" stroke-linejoin="round" fill="none" stroke="#000000" d="M276.96498 172.21642V176.87899"/>
<path transform="matrix(1,0,0,-1,0,323.995)" stroke-width=".89664" stroke-linecap="butt" stroke-linejoin="round" fill="none" stroke="#000000" d="M276.96498 174.5477H224.63054"/>
<path transform="matrix(1,0,0,-1,0,323.995)" stroke-width=".89664" stroke-linecap="butt" stroke-linejoin="round" fill="none" stroke="#000000" d="M224.63054 172.21642V176.87899"/>
<path transform="matrix(1,0,0,-1,0,323.995)" stroke-width=".89664" stroke-linecap="butt" stroke-linejoin="round" fill="none" stroke="#000000" d="M222.97672 156.64459V161.31714"/>
<path transform="matrix(1,0,0,-1,0,323.995)" stroke-width=".89664" stroke-linecap="butt" stroke-linejoin="round" fill="none" stroke="#000000" d="M222.97672 158.97589H194.46327"/>
<path transform="matrix(1,0,0,-1,0,323.995)" stroke-width=".89664" stroke-linecap="butt" stroke-linejoin="round" fill="none" stroke="#000000" d="M194.46327 156.64459V161.31714"/>
<path transform="matrix(1,0,0,-1,0,323.995)" stroke-width=".89664" stroke-linecap="butt" stroke-linejoin="round" fill="none" stroke="#000000" d="M457.58 141.0728V145.74533"/>
<path transform="matrix(1,0,0,-1,0,323.995)" stroke-width=".89664" stroke-linecap="butt" stroke-linejoin="round" fill="none" stroke="#000000" d="M457.58 143.41405H230.34917"/>
<path transform="matrix(1,0,0,-1,0,323.995)" stroke-width=".89664" stroke-linecap="butt" stroke-linejoin="round" fill="none" stroke="#000000" d="M230.34917 141.0728V145.74533"/>
<path transform="matrix(1,0,0,-1,0,323.995)" stroke-width=".89664" stroke-linecap="butt" stroke-linejoin="round" fill="none" stroke="#000000" d="M289.85679 125.51094V130.17353"/>
<path transform="matrix(1,0,0,-1,0,323.995)" stroke-width=".89664" stroke-linecap="butt" stroke-linejoin="round" fill="none" stroke="#000000" d="M289.85679 127.84224H254.74799"/>
<path transform="matrix(1,0,0,-1,0,323.995)" stroke-width=".89664" stroke-linecap="butt" stroke-linejoin="round" fill="none" stroke="#000000" d="M254.74799 125.51094V130.17353"/>
<path transform="matrix(1,0,0,-1,0,323.995)" stroke-width=".89664" stroke-linecap="butt" stroke-linejoin="round" fill="none" stroke="#000000" d="M277.66236 109.93915V114.61168"/>
<path transform="matrix(1,0,0,-1,0,323.995)" stroke-width=".89664" stroke-linecap="butt" stroke-linejoin="round" fill="none" stroke="#000000" d="M277.66236 112.27043H241.43773"/>
<path transform="matrix(1,0,0,-1,0,323.995)" stroke-width=".89664" stroke-linecap="butt" stroke-linejoin="round" fill="none" stroke="#000000" d="M241.43773 109.93915V114.61168"/>
<path transform="matrix(1,0,0,-1,0,323.995)" stroke-width=".89664" stroke-linecap="butt" stroke-linejoin="round" fill="none" stroke="#000000" d="M308.89564 94.36734V99.03987"/>
<path transform="matrix(1,0,0,-1,0,323.995)" stroke-width=".89664" stroke-linecap="butt" stroke-linejoin="round" fill="none" stroke="#000000" d="M308.89564 96.70859H241.45766"/>
<path transform="matrix(1,0,0,-1,0,323.995)" stroke-width=".89664" stroke-linecap="butt" stroke-linejoin="round" fill="none" stroke="#000000" d="M241.45766 94.36734V99.03987"/>
<path transform="matrix(1,0,0,-1,0,323.995)" stroke-width=".89664" stroke-linecap="butt" stroke-linejoin="round" fill="none" stroke="#000000" d="M276.2277 78.8055V83.47803"/>
<path transform="matrix(1,0,0,-1,0,323.995)" stroke-width=".89664" stroke-linecap="butt" stroke-linejoin="round" fill="none" stroke="#000000" d="M276.2277 81.13678H223.55455"/>
<path transform="matrix(1,0,0,-1,0,323.995)" stroke-width=".89664" stroke-linecap="butt" stroke-linejoin="round" fill="none" stroke="#000000" d="M223.55455 78.8055V83.47803"/>
<path transform="matrix(1,0,0,-1,0,323.995)" stroke-width=".89664" stroke-linecap="butt" stroke-linejoin="round" fill="none" stroke="#000000" d="M271.4456 63.23369V67.90622"/>
<path transform="matrix(1,0,0,-1,0,323.995)" stroke-width=".89664" stroke-linecap="butt" stroke-linejoin="round" fill="none" stroke="#000000" d="M271.4456 65.56497H201.14829"/>
<path transform="matrix(1,0,0,-1,0,323.995)" stroke-width=".89664" stroke-linecap="butt" stroke-linejoin="round" fill="none" stroke="#000000" d="M201.14829 63.23369V67.90622"/>
<path transform="matrix(1,0,0,-1,0,323.995)" stroke-width=".29887" stroke-linecap="butt" stroke-dasharray="3.9851,3.9851" stroke-linejoin="round" fill="none" stroke="#000000" d="M224.73017 25.0962V323.99919"/>
<path transform="matrix(1,0,0,-1,0,323.995)" d="M254.78784 34.43132 274.0359 29.75877 293.28398 34.43132 274.0359 39.10387Z" fill="#ff0000"/>
<path transform="matrix(1,0,0,-1,0,323.995)" stroke-width=".59776" stroke-linecap="round" stroke-linejoin="round" fill="none" stroke="#ff0000" d="M254.78784 34.43132 274.0359 29.75877 293.28398 34.43132 274.0359 39.10387Z"/>
<path transform="matrix(1,0,0,-1,0,323.995)" stroke-width=".29887" stroke-linecap="butt" stroke-dasharray=".99628,2.98883" stroke-linejoin="round" fill="none" stroke="#000000" d="M273.747 25.0962V323.99919"/>
<text xml:space="preserve" transform="matrix(1 0 -0 1 0 323.995)" font-size="9.9626" font-family="CMMI10" font-style="italic"><tspan y="-311.243" x="469.778">k</tspan></text>
<text xml:space="preserve" transform="matrix(1 0 -0 1 0 323.995)" font-size="9.9626" font-family="CMR10"><tspan y="-311.243" x="478.04603 488.56654">=3</tspan></text>
<text xml:space="preserve" transform="matrix(1 0 -0 1 0 323.995)" font-size="9.9626" font-family="CMMI10" font-style="italic"><tspan y="-295.671" x="469.778">k</tspan></text>
<text xml:space="preserve" transform="matrix(1 0 -0 1 0 323.995)" font-size="9.9626" font-family="CMR10"><tspan y="-295.671" x="478.04603 488.56654">=4</tspan></text>
<text xml:space="preserve" transform="matrix(1 0 -0 1 0 323.995)" font-size="9.9626" font-family="CMMI10" font-style="italic"><tspan y="-280.11" x="469.778">k</tspan></text>
<text xml:space="preserve" transform="matrix(1 0 -0 1 0 323.995)" font-size="9.9626" font-family="CMR10"><tspan y="-280.11" x="478.04603 488.56654">=3</tspan></text>
<text xml:space="preserve" transform="matrix(1 0 -0 1 0 323.995)" font-size="9.9626" font-family="CMMI10" font-style="italic"><tspan y="-264.538" x="469.778">k</tspan></text>
<text xml:space="preserve" transform="matrix(1 0 -0 1 0 323.995)" font-size="9.9626" font-family="CMR10"><tspan y="-264.538" x="478.04603 488.56654">=2</tspan></text>
<text xml:space="preserve" transform="matrix(1 0 -0 1 0 323.995)" font-size="9.9626" font-family="CMMI10" font-style="italic"><tspan y="-248.966" x="469.778">k</tspan></text>
<text xml:space="preserve" transform="matrix(1 0 -0 1 0 323.995)" font-size="9.9626" font-family="CMR10"><tspan y="-248.966" x="478.04603 488.56654">=3</tspan></text>
<text xml:space="preserve" transform="matrix(1 0 -0 1 0 323.995)" font-size="9.9626" font-family="CMMI10" font-style="italic"><tspan y="-233.405" x="469.778">k</tspan></text>
<text xml:space="preserve" transform="matrix(1 0 -0 1 0 323.995)" font-size="9.9626" font-family="CMR10"><tspan y="-233.405" x="478.04603 488.56654">=4</tspan></text>
<text xml:space="preserve" transform="matrix(1 0 -0 1 0 323.995)" font-size="9.9626" font-family="CMMI10" font-style="italic"><tspan y="-217.833" x="469.778">k</tspan></text>
<text xml:space="preserve" transform="matrix(1 0 -0 1 0 323.995)" font-size="9.9626" font-family="CMR10"><tspan y="-217.833" x="478.04603 488.56654 493.54783">=10</tspan></text>
<text xml:space="preserve" transform="matrix(1 0 -0 1 0 323.995)" font-size="9.9626" font-family="CMMI10" font-style="italic"><tspan y="-202.262" x="469.778">k</tspan></text>
<text xml:space="preserve" transform="matrix(1 0 -0 1 0 323.995)" font-size="9.9626" font-family="CMR10"><tspan y="-202.262" x="478.04603 488.56654">=2</tspan></text>
<text xml:space="preserve" transform="matrix(1 0 -0 1 0 323.995)" font-size="9.9626" font-family="CMMI10" font-style="italic"><tspan y="-186.7" x="469.778">k</tspan></text>
<text xml:space="preserve" transform="matrix(1 0 -0 1 0 323.995)" font-size="9.9626" font-family="CMR10"><tspan y="-186.7" x="478.04603 488.56654">=1</tspan></text>
<text xml:space="preserve" transform="matrix(1 0 -0 1 0 323.995)" font-size="9.9626" font-family="CMMI10" font-style="italic"><tspan y="-171.128" x="469.778">k</tspan></text>
<text xml:space="preserve" transform="matrix(1 0 -0 1 0 323.995)" font-size="9.9626" font-family="CMR10"><tspan y="-171.128" x="478.04603 488.56654">=4</tspan></text>
<text xml:space="preserve" transform="matrix(1 0 -0 1 0 323.995)" font-size="9.9626" font-family="CMMI10" font-style="italic"><tspan y="-155.557" x="469.778">k</tspan></text>
<text xml:space="preserve" transform="matrix(1 0 -0 1 0 323.995)" font-size="9.9626" font-family="CMR10"><tspan y="-155.557" x="478.04603 488.56654">=6</tspan></text>
<text xml:space="preserve" transform="matrix(1 0 -0 1 0 323.995)" font-size="9.9626" font-family="CMMI10" font-style="italic"><tspan y="-139.995" x="469.778">k</tspan></text>
<text xml:space="preserve" transform="matrix(1 0 -0 1 0 323.995)" font-size="9.9626" font-family="CMR10"><tspan y="-139.995" x="478.04603 488.56654">=2</tspan></text>
<text xml:space="preserve" transform="matrix(1 0 -0 1 0 323.995)" font-size="9.9626" font-family="CMMI10" font-style="italic"><tspan y="-124.423" x="469.778">k</tspan></text>
<text xml:space="preserve" transform="matrix(1 0 -0 1 0 323.995)" font-size="9.9626" font-family="CMR10"><tspan y="-124.423" x="478.04603 488.56654 493.54783">=12</tspan></text>
<text xml:space="preserve" transform="matrix(1 0 -0 1 0 323.995)" font-size="9.9626" font-family="CMMI10" font-style="italic"><tspan y="-108.862" x="469.778">k</tspan></text>
<text xml:space="preserve" transform="matrix(1 0 -0 1 0 323.995)" font-size="9.9626" font-family="CMR10"><tspan y="-108.862" x="478.04603 488.56654 493.54783">=20</tspan></text>
<text xml:space="preserve" transform="matrix(1 0 -0 1 0 323.995)" font-size="9.9626" font-family="CMMI10" font-style="italic"><tspan y="-93.29" x="469.778">k</tspan></text>
<text xml:space="preserve" transform="matrix(1 0 -0 1 0 323.995)" font-size="9.9626" font-family="CMR10"><tspan y="-93.29" x="478.04603 488.56654">=8</tspan></text>
<text xml:space="preserve" transform="matrix(1 0 -0 1 0 323.995)" font-size="9.9626" font-family="CMMI10" font-style="italic"><tspan y="-77.719" x="469.778">k</tspan></text>
<text xml:space="preserve" transform="matrix(1 0 -0 1 0 323.995)" font-size="9.9626" font-family="CMR10"><tspan y="-77.719" x="478.04603 488.56654">=8</tspan></text>
<text xml:space="preserve" transform="matrix(1 0 -0 1 0 323.995)" font-size="9.9626" font-family="CMMI10" font-style="italic"><tspan y="-62.157" x="469.778">k</tspan></text>
<text xml:space="preserve" transform="matrix(1 0 -0 1 0 323.995)" font-size="9.9626" font-family="CMR10"><tspan y="-62.157" x="478.04603 488.56654">=8</tspan></text>
<path transform="matrix(1,0,0,-1,0,323.995)" d="M249.65702 312.71138H253.56241V316.6168H249.65702Z"/>
<path transform="matrix(1,0,0,-1,0,323.995)" d="M357.0158 297.13957H360.93119V301.04499H357.0158Z"/>
<path transform="matrix(1,0,0,-1,0,323.995)" d="M315.4013 281.56776H319.31669V285.48313H315.4013Z"/>
<path transform="matrix(1,0,0,-1,0,323.995)" d="M293.34376 266.00593H297.25914V269.91133H293.34376Z"/>
<path transform="matrix(1,0,0,-1,0,323.995)" d="M316.10868 250.4341H320.02406V254.34947H316.10868Z"/>
<path transform="matrix(1,0,0,-1,0,323.995)" d="M241.03922 234.8623H244.95458V238.77767H241.03922Z"/>
<path transform="matrix(1,0,0,-1,0,323.995)" d="M309.9517 219.30045H313.8571V223.20586H309.9517Z"/>
<path transform="matrix(1,0,0,-1,0,323.995)" d="M233.00923 203.72866H236.92459V207.64402H233.00923Z"/>
<path transform="matrix(1,0,0,-1,0,323.995)" d="M337.8375 188.15685H341.7429V192.0722H337.8375Z"/>
<path transform="matrix(1,0,0,-1,0,323.995)" d="M248.84008 172.595H252.75543V176.5004H248.84008Z"/>
<path transform="matrix(1,0,0,-1,0,323.995)" d="M206.76729 157.0232H210.6727V160.93856H206.76729Z"/>
<path transform="matrix(1,0,0,-1,0,323.995)" d="M342.01188 141.46135H345.92726V145.36675H342.01188Z"/>
<path transform="matrix(1,0,0,-1,0,323.995)" d="M270.3497 125.88954H274.25508V129.79494H270.3497Z"/>
<path transform="matrix(1,0,0,-1,0,323.995)" d="M257.59736 110.31772H261.50273V114.2331H257.59736Z"/>
<path transform="matrix(1,0,0,-1,0,323.995)" d="M273.21897 94.75589H277.1343V98.66129H273.21897Z"/>
<path transform="matrix(1,0,0,-1,0,323.995)" d="M247.93346 79.18407H251.84882V83.08948H247.93346Z"/>
<path transform="matrix(1,0,0,-1,0,323.995)" d="M234.34424 63.61227H238.24964V67.52763H234.34424Z"/>
<path transform="matrix(1,0,0,-1,0,323.995)" stroke-width=".59776" stroke-linecap="butt" stroke-linejoin="round" fill="none" stroke="#000000" stroke-opacity=".5" d="M289.07969 312.3328V316.99537"/>
<path transform="matrix(1,0,0,-1,0,323.995)" stroke-width=".59776" stroke-linecap="butt" stroke-linejoin="round" fill="none" stroke="#000000" stroke-opacity=".5" d="M289.07969 314.6641H214.13974"/>
<path transform="matrix(1,0,0,-1,0,323.995)" stroke-width=".59776" stroke-linecap="butt" stroke-linejoin="round" fill="none" stroke="#000000" stroke-opacity=".5" d="M214.13974 312.3328V316.99537"/>
<path transform="matrix(1,0,0,-1,0,323.995)" stroke-width=".59776" stroke-linecap="butt" stroke-linejoin="round" fill="none" stroke="#000000" stroke-opacity=".5" d="M408.17463 296.76097V301.43354"/>
<path transform="matrix(1,0,0,-1,0,323.995)" stroke-width=".59776" stroke-linecap="butt" stroke-linejoin="round" fill="none" stroke="#000000" stroke-opacity=".5" d="M408.17463 299.0923H309.77235"/>
<path transform="matrix(1,0,0,-1,0,323.995)" stroke-width=".59776" stroke-linecap="butt" stroke-linejoin="round" fill="none" stroke="#000000" stroke-opacity=".5" d="M309.77235 296.76097V301.43354"/>
<path transform="matrix(1,0,0,-1,0,323.995)" stroke-width=".59776" stroke-linecap="butt" stroke-linejoin="round" fill="none" stroke="#000000" stroke-opacity=".5" d="M386.84434 281.18919V285.86174"/>
<path transform="matrix(1,0,0,-1,0,323.995)" stroke-width=".59776" stroke-linecap="butt" stroke-linejoin="round" fill="none" stroke="#000000" stroke-opacity=".5" d="M386.84434 283.53044H247.87368"/>
<path transform="matrix(1,0,0,-1,0,323.995)" stroke-width=".59776" stroke-linecap="butt" stroke-linejoin="round" fill="none" stroke="#000000" stroke-opacity=".5" d="M247.87368 281.18919V285.86174"/>
<path transform="matrix(1,0,0,-1,0,323.995)" stroke-width=".59776" stroke-linecap="butt" stroke-linejoin="round" fill="none" stroke="#000000" stroke-opacity=".5" d="M360.71199 265.62733V270.2899"/>
<path transform="matrix(1,0,0,-1,0,323.995)" stroke-width=".59776" stroke-linecap="butt" stroke-linejoin="round" fill="none" stroke="#000000" stroke-opacity=".5" d="M360.71199 267.95863H229.89089"/>
<path transform="matrix(1,0,0,-1,0,323.995)" stroke-width=".59776" stroke-linecap="butt" stroke-linejoin="round" fill="none" stroke="#000000" stroke-opacity=".5" d="M229.89089 265.62733V270.2899"/>
<path transform="matrix(1,0,0,-1,0,323.995)" stroke-width=".59776" stroke-linecap="butt" stroke-linejoin="round" fill="none" stroke="#000000" stroke-opacity=".5" d="M411.89073 250.05553V254.72806"/>
<path transform="matrix(1,0,0,-1,0,323.995)" stroke-width=".59776" stroke-linecap="butt" stroke-linejoin="round" fill="none" stroke="#000000" stroke-opacity=".5" d="M411.89073 252.38681H224.24199"/>
<path transform="matrix(1,0,0,-1,0,323.995)" stroke-width=".59776" stroke-linecap="butt" stroke-linejoin="round" fill="none" stroke="#000000" stroke-opacity=".5" d="M224.24199 250.05553V254.72806"/>
<path transform="matrix(1,0,0,-1,0,323.995)" stroke-width=".59776" stroke-linecap="butt" stroke-linejoin="round" fill="none" stroke="#000000" stroke-opacity=".5" d="M298.94285 234.48372V239.15625"/>
<path transform="matrix(1,0,0,-1,0,323.995)" stroke-width=".59776" stroke-linecap="butt" stroke-linejoin="round" fill="none" stroke="#000000" stroke-opacity=".5" d="M298.94285 236.82497H187.05098"/>
<path transform="matrix(1,0,0,-1,0,323.995)" stroke-width=".59776" stroke-linecap="butt" stroke-linejoin="round" fill="none" stroke="#000000" stroke-opacity=".5" d="M187.05098 234.48372V239.15625"/>
<path transform="matrix(1,0,0,-1,0,323.995)" stroke-width=".59776" stroke-linecap="butt" stroke-linejoin="round" fill="none" stroke="#000000" stroke-opacity=".5" d="M394.63523 218.92188V223.58444"/>
<path transform="matrix(1,0,0,-1,0,323.995)" stroke-width=".59776" stroke-linecap="butt" stroke-linejoin="round" fill="none" stroke="#000000" stroke-opacity=".5" d="M394.63523 221.25316H229.18352"/>
<path transform="matrix(1,0,0,-1,0,323.995)" stroke-width=".59776" stroke-linecap="butt" stroke-linejoin="round" fill="none" stroke="#000000" stroke-opacity=".5" d="M229.18352 218.92188V223.58444"/>
<path transform="matrix(1,0,0,-1,0,323.995)" stroke-width=".59776" stroke-linecap="butt" stroke-linejoin="round" fill="none" stroke="#000000" stroke-opacity=".5" d="M269.25379 203.35007V208.0226"/>
<path transform="matrix(1,0,0,-1,0,323.995)" stroke-width=".59776" stroke-linecap="butt" stroke-linejoin="round" fill="none" stroke="#000000" stroke-opacity=".5" d="M269.25379 205.68135H200.68004"/>
<path transform="matrix(1,0,0,-1,0,323.995)" stroke-width=".59776" stroke-linecap="butt" stroke-linejoin="round" fill="none" stroke="#000000" stroke-opacity=".5" d="M200.68004 203.35007V208.0226"/>
<path transform="matrix(1,0,0,-1,0,323.995)" stroke-width=".59776" stroke-linecap="butt" stroke-linejoin="round" fill="none" stroke="#000000" stroke-opacity=".5" d="M376.33363 187.77825V192.45079"/>
<path transform="matrix(1,0,0,-1,0,323.995)" stroke-width=".59776" stroke-linecap="butt" stroke-linejoin="round" fill="none" stroke="#000000" stroke-opacity=".5" d="M376.33363 190.1195H303.24678"/>
<path transform="matrix(1,0,0,-1,0,323.995)" stroke-width=".59776" stroke-linecap="butt" stroke-linejoin="round" fill="none" stroke="#000000" stroke-opacity=".5" d="M303.24678 187.77825V192.45079"/>
<path transform="matrix(1,0,0,-1,0,323.995)" stroke-width=".59776" stroke-linecap="butt" stroke-linejoin="round" fill="none" stroke="#000000" stroke-opacity=".5" d="M275.4008 172.21642V176.87899"/>
<path transform="matrix(1,0,0,-1,0,323.995)" stroke-width=".59776" stroke-linecap="butt" stroke-linejoin="round" fill="none" stroke="#000000" stroke-opacity=".5" d="M275.4008 174.5477H226.19469"/>
<path transform="matrix(1,0,0,-1,0,323.995)" stroke-width=".59776" stroke-linecap="butt" stroke-linejoin="round" fill="none" stroke="#000000" stroke-opacity=".5" d="M226.19469 172.21642V176.87899"/>
<path transform="matrix(1,0,0,-1,0,323.995)" stroke-width=".59776" stroke-linecap="butt" stroke-linejoin="round" fill="none" stroke="#000000" stroke-opacity=".5" d="M243.70923 156.64459V161.31714"/>
<path transform="matrix(1,0,0,-1,0,323.995)" stroke-width=".59776" stroke-linecap="butt" stroke-linejoin="round" fill="none" stroke="#000000" stroke-opacity=".5" d="M243.70923 158.97589H173.73076"/>
<path transform="matrix(1,0,0,-1,0,323.995)" stroke-width=".59776" stroke-linecap="butt" stroke-linejoin="round" fill="none" stroke="#000000" stroke-opacity=".5" d="M173.73076 156.64459V161.31714"/>
<path transform="matrix(1,0,0,-1,0,323.995)" stroke-width=".59776" stroke-linecap="butt" stroke-linejoin="round" fill="none" stroke="#000000" stroke-opacity=".5" d="M445.9833 141.0728V145.74533"/>
<path transform="matrix(1,0,0,-1,0,323.995)" stroke-width=".59776" stroke-linecap="butt" stroke-linejoin="round" fill="none" stroke="#000000" stroke-opacity=".5" d="M445.9833 143.41405H241.9558"/>
<path transform="matrix(1,0,0,-1,0,323.995)" stroke-width=".59776" stroke-linecap="butt" stroke-linejoin="round" fill="none" stroke="#000000" stroke-opacity=".5" d="M241.9558 141.0728V145.74533"/>
<path transform="matrix(1,0,0,-1,0,323.995)" stroke-width=".59776" stroke-linecap="butt" stroke-linejoin="round" fill="none" stroke="#000000" stroke-opacity=".5" d="M330.99305 125.51094V130.17353"/>
<path transform="matrix(1,0,0,-1,0,323.995)" stroke-width=".59776" stroke-linecap="butt" stroke-linejoin="round" fill="none" stroke="#000000" stroke-opacity=".5" d="M330.99305 127.84224H213.61171"/>
<path transform="matrix(1,0,0,-1,0,323.995)" stroke-width=".59776" stroke-linecap="butt" stroke-linejoin="round" fill="none" stroke="#000000" stroke-opacity=".5" d="M213.61171 125.51094V130.17353"/>
<path transform="matrix(1,0,0,-1,0,323.995)" stroke-width=".59776" stroke-linecap="butt" stroke-linejoin="round" fill="none" stroke="#000000" stroke-opacity=".5" d="M326.84855 109.93915V114.61168"/>
<path transform="matrix(1,0,0,-1,0,323.995)" stroke-width=".59776" stroke-linecap="butt" stroke-linejoin="round" fill="none" stroke="#000000" stroke-opacity=".5" d="M326.84855 112.27043H192.26149"/>
<path transform="matrix(1,0,0,-1,0,323.995)" stroke-width=".59776" stroke-linecap="butt" stroke-linejoin="round" fill="none" stroke="#000000" stroke-opacity=".5" d="M192.26149 109.93915V114.61168"/>
<path transform="matrix(1,0,0,-1,0,323.995)" stroke-width=".59776" stroke-linecap="butt" stroke-linejoin="round" fill="none" stroke="#000000" stroke-opacity=".5" d="M370.29618 94.36734V99.03987"/>
<path transform="matrix(1,0,0,-1,0,323.995)" stroke-width=".59776" stroke-linecap="butt" stroke-linejoin="round" fill="none" stroke="#000000" stroke-opacity=".5" d="M370.29618 96.70859H180.0571"/>
<path transform="matrix(1,0,0,-1,0,323.995)" stroke-width=".59776" stroke-linecap="butt" stroke-linejoin="round" fill="none" stroke="#000000" stroke-opacity=".5" d="M180.0571 94.36734V99.03987"/>
<path transform="matrix(1,0,0,-1,0,323.995)" stroke-width=".59776" stroke-linecap="butt" stroke-linejoin="round" fill="none" stroke="#000000" stroke-opacity=".5" d="M323.6206 78.8055V83.47803"/>
<path transform="matrix(1,0,0,-1,0,323.995)" stroke-width=".59776" stroke-linecap="butt" stroke-linejoin="round" fill="none" stroke="#000000" stroke-opacity=".5" d="M323.6206 81.13678H176.16167"/>
<path transform="matrix(1,0,0,-1,0,323.995)" stroke-width=".59776" stroke-linecap="butt" stroke-linejoin="round" fill="none" stroke="#000000" stroke-opacity=".5" d="M176.16167 78.8055V83.47803"/>
<path transform="matrix(1,0,0,-1,0,323.995)" stroke-width=".59776" stroke-linecap="butt" stroke-linejoin="round" fill="none" stroke="#000000" stroke-opacity=".5" d="M318.9381 63.23369V67.90622"/>
<path transform="matrix(1,0,0,-1,0,323.995)" stroke-width=".59776" stroke-linecap="butt" stroke-linejoin="round" fill="none" stroke="#000000" stroke-opacity=".5" d="M318.9381 65.56497H153.65576"/>
<path transform="matrix(1,0,0,-1,0,323.995)" stroke-width=".59776" stroke-linecap="butt" stroke-linejoin="round" fill="none" stroke="#000000" stroke-opacity=".5" d="M153.65576 63.23369V67.90622"/>
</g>
<g clip-path="url(#clip_2)">
<text xml:space="preserve" transform="matrix(1 0 -0 1 0 323.995)" font-size="9.9626" font-family="CMR10"><tspan y="-31.004" x="76.162 81.70121 87.24042 95.53926 103.838108 108.819408 112.72475">Summary</tspan></text>
<text xml:space="preserve" transform="matrix(1 0 -0 1 0 323.995)" font-size="9.9626" font-family="CMR10"><tspan y="-62.137" x="20.454 29.868657 34.849958 37.61956 41.544828 46.247175 54.54602 65.624439 75.86599 78.63559 81.40519 85.33045 90.31175 98.05269 103.03399 108.01529 112.99659">Wolska&#x0026;Wilske2011</tspan></text>
<text xml:space="preserve" transform="matrix(1 0 -0 1 0 323.995)" font-size="9.9626" font-family="CMR10"><tspan y="-77.709" x="14.919 24.333657 29.314957 32.08456 36.009828 40.712175 49.01102 60.08943 70.330989 73.100589 75.870189 79.79545 84.77675 92.517688 97.498989 102.480289 107.461589 112.44289">Wolska&#x0026;Wilske2010b</tspan></text>
<text xml:space="preserve" transform="matrix(1 0 -0 1 0 323.995)" font-size="9.9626" font-family="CMR10"><tspan y="-93.27" x="15.473 24.887656 29.868956 32.638559 36.563825 41.26617 49.565019 60.64343 70.88498 73.65458 76.42418 80.34944 85.33074 93.07168 98.05298 103.03428 108.01558 112.99688">Wolska&#x0026;Wilske2010a</tspan></text>
<text xml:space="preserve" transform="matrix(1 0 -0 1 0 323.995)" font-size="9.9626" font-family="CMR10"><tspan y="-108.842" x="65.618 75.85955 78.62915 81.39875 85.32401 90.30531 98.05621 103.03751 108.018817 113.000118">Wilske2015</tspan></text>
<text xml:space="preserve" transform="matrix(1 0 -0 1 0 323.995)" font-size="9.9626" font-family="CMR10"><tspan y="-124.413" x="20.454 30.695553 33.465158 36.23476 40.160028 45.141328 52.892229 63.96068 73.375339 78.356639 81.126239 85.0515 89.753849 98.05269 103.03399 108.01529 112.99659">Wilske&#x0026;Wolska2011</tspan></text>
<text xml:space="preserve" transform="matrix(1 0 -0 1 0 323.995)" font-size="9.9626" font-family="CMR10"><tspan y="-139.975" x="35.647 42.70052 47.68182 53.221029 55.99063 58.760236 61.52984 66.51114 75.36789 79.79128 86.99424 91.97554 98.06268 103.04398 108.02528 113.006587">Bouillonetal2011</tspan></text>
<text xml:space="preserve" transform="matrix(1 0 -0 1 0 323.995)" font-size="9.9626" font-family="CMR10"><tspan y="-155.547" x="19.541 26.873475 31.854775 35.78004 40.203435 45.463689 49.339139 54.878347 59.859647 62.62925 65.39885 68.16845 75.37141 79.7948 86.98779 91.96909 98.05624 103.03754 108.01884 113.00014">Rosenthal...etal2016</tspan></text>
<text xml:space="preserve" transform="matrix(1 0 -0 1 0 323.995)" font-size="9.9626" font-family="CMR10"><tspan y="-171.118" x="51.006 58.198999 63.738206 66.507808 75.364559 79.78795 86.990909 91.972209 98.05935 103.04065 108.02195 113.00325">Chiuetal2007</tspan></text>
<text xml:space="preserve" transform="matrix(1 0 -0 1 0 323.995)" font-size="9.9626" font-family="CMR10"><tspan y="-186.68" x="54.051 61.52295 66.50425 75.361 79.78439 86.98735 91.96865 98.05579 103.037097 108.018398 112.999698">Nohetal2012</tspan></text>
<text xml:space="preserve" transform="matrix(1 0 -0 1 0 323.995)" font-size="9.9626" font-family="CMR10"><tspan y="-202.252" x="51.975 58.201623 62.625017 70.36595 74.789348 81.9923 86.9736 93.060749 98.042049 103.023349 108.00465 112.98595">Leeetal2014a</tspan></text>
<text xml:space="preserve" transform="matrix(1 0 -0 1 0 323.995)" font-size="9.9626" font-family="CMR10"><tspan y="-217.823" x="51.975 58.201623 62.625017 70.36595 74.789348 81.9923 86.9736 93.060749 98.042049 103.023349 108.00465 112.98595">Leeetal2011a</tspan></text>
<text xml:space="preserve" transform="matrix(1 0 -0 1 0 323.995)" font-size="9.9626" font-family="CMR10"><tspan y="-233.385" x="38.442 45.91395 50.895254 54.82052 58.745786 63.727087 69.26629 75.35343 79.776828 86.97978 91.96108 98.048229 103.029529 108.010829 112.99213">Hassanietal2016</tspan></text>
<text xml:space="preserve" transform="matrix(1 0 -0 1 0 323.995)" font-size="9.9626" font-family="CMR10"><tspan y="-248.956" x="40.629 48.100954 53.082254 56.98759 59.757196 64.18059 68.10585 75.348659 79.77205 86.975009 91.95631 98.04345 103.02475 108.00605 112.98735">Harlessetal1999</tspan></text>
<text xml:space="preserve" transform="matrix(1 0 -0 1 0 323.995)" font-size="9.9626" font-family="CMR10"><tspan y="-264.528" x="57.704 64.20958 68.63297 72.50842 76.931819 80.83716 84.76242 89.185817 98.05253 103.03383 108.01513 112.99643">Petersen2010</tspan></text>
<text xml:space="preserve" transform="matrix(1 0 -0 1 0 323.995)" font-size="9.9626" font-family="CMR10"><tspan y="-280.09" x="75.913 83.6639 86.4335 98.04989 103.03119 108.01249 112.99379">Kim2016</tspan></text>
<text xml:space="preserve" transform="matrix(1 0 -0 1 0 323.995)" font-size="9.9626" font-family="CMR10"><tspan y="-295.661" x="37.723 44.0891 49.0704 54.0517 59.590909 63.73535 69.27456 75.3617 79.785099 86.98805 91.96935 98.056499 103.037799 108.0191 113.0004">Taguchietal2017</tspan></text>
<text xml:space="preserve" transform="matrix(1 0 -0 1 0 323.995)" font-size="9.9626" font-family="CMR10"><tspan y="-311.233" x="59.17 64.29077 67.06037 75.359218 79.78261 86.985569 91.966869 98.05401 103.03531 108.01661 112.99791">Jiaetal2013</tspan></text>
</g>
<g clip-path="url(#clip_3)">
<path transform="matrix(1,0,0,-1,0,323.995)" stroke-width=".3985" stroke-linecap="round" stroke-linejoin="round" fill="none" stroke="#000000" d="M122.91066 25.0962H504.00648"/>
</g>
<g clip-path="url(#clip_4)">
<path transform="matrix(1,0,0,-1,0,323.995)" stroke-width=".59776" stroke-linecap="butt" stroke-linejoin="round" fill="none" stroke="#333333" d="M140.23592 22.35645V25.0962"/>
<path transform="matrix(1,0,0,-1,0,323.995)" stroke-width=".59776" stroke-linecap="butt" stroke-linejoin="round" fill="none" stroke="#333333" d="M182.47806 22.35645V25.0962"/>
<path transform="matrix(1,0,0,-1,0,323.995)" stroke-width=".59776" stroke-linecap="butt" stroke-linejoin="round" fill="none" stroke="#333333" d="M224.73017 22.35645V25.0962"/>
<path transform="matrix(1,0,0,-1,0,323.995)" stroke-width=".59776" stroke-linecap="butt" stroke-linejoin="round" fill="none" stroke="#333333" d="M266.98225 22.35645V25.0962"/>
<path transform="matrix(1,0,0,-1,0,323.995)" stroke-width=".59776" stroke-linecap="butt" stroke-linejoin="round" fill="none" stroke="#333333" d="M309.23439 22.35645V25.0962"/>
<path transform="matrix(1,0,0,-1,0,323.995)" stroke-width=".59776" stroke-linecap="butt" stroke-linejoin="round" fill="none" stroke="#333333" d="M351.48649 22.35645V25.0962"/>
<path transform="matrix(1,0,0,-1,0,323.995)" stroke-width=".59776" stroke-linecap="butt" stroke-linejoin="round" fill="none" stroke="#333333" d="M393.7286 22.35645V25.0962"/>
<path transform="matrix(1,0,0,-1,0,323.995)" stroke-width=".59776" stroke-linecap="butt" stroke-linejoin="round" fill="none" stroke="#333333" d="M435.9807 22.35645V25.0962"/>
<path transform="matrix(1,0,0,-1,0,323.995)" stroke-width=".59776" stroke-linecap="butt" stroke-linejoin="round" fill="none" stroke="#333333" d="M478.23283 22.35645V25.0962"/>
</g>
<g clip-path="url(#clip_5)">
<text fill="#4c4d4c" xml:space="preserve" transform="matrix(.88 0 -0 .88 15.980637 322.29975)" font-size="9.9626" font-family="CMR10"><tspan y="-14.127" x="133.172 136.48955 141.47084 144.24045">-1.0</tspan></text>
<text fill="#4c4d4c" xml:space="preserve" transform="matrix(.88 0 -0 .88 21.04956 322.29975)" font-size="9.9626" font-family="CMR10"><tspan y="-14.127" x="175.413 178.73055 183.71184 186.48145">-0.5</tspan></text>
<text fill="#4c4d4c" xml:space="preserve" transform="matrix(.88 0 -0 .88 26.29512 322.29975)" font-size="9.9626" font-family="CMR10"><tspan y="-14.127" x="219.126 224.1073 226.8769">0.0</tspan></text>
<text fill="#4c4d4c" xml:space="preserve" transform="matrix(.88 0 -0 .88 31.365357 322.29975)" font-size="9.9626" font-family="CMR10"><tspan y="-14.127" x="261.378 266.35929 269.12889">0.5</tspan></text>
<text fill="#4c4d4c" xml:space="preserve" transform="matrix(.88 0 -0 .88 36.435487 322.29975)" font-size="9.9626" font-family="CMR10"><tspan y="-14.127" x="303.629 308.6103 311.37989">1.0</tspan></text>
<text fill="#4c4d4c" xml:space="preserve" transform="matrix(.88 0 -0 .88 41.505739 322.29975)" font-size="9.9626" font-family="CMR10"><tspan y="-14.127" x="345.881 350.8623 353.6319">1.5</tspan></text>
<text fill="#4c4d4c" xml:space="preserve" transform="matrix(.88 0 -0 .88 46.574647 322.29975)" font-size="9.9626" font-family="CMR10"><tspan y="-14.127" x="388.122 393.1033 395.8729">2.0</tspan></text>
<text fill="#4c4d4c" xml:space="preserve" transform="matrix(.88 0 -0 .88 51.644868 322.29975)" font-size="9.9626" font-family="CMR10"><tspan y="-14.127" x="430.374 435.3553 438.12489">2.5</tspan></text>
<text fill="#4c4d4c" xml:space="preserve" transform="matrix(.88 0 -0 .88 56.714998 322.29975)" font-size="9.9626" font-family="CMR10"><tspan y="-14.127" x="472.625 477.6063 480.3759">3.0</tspan></text>
</g>
<g clip-path="url(#clip_6)">
<text xml:space="preserve" transform="matrix(1.1 0 -0 1.1 -25.067795 324.20823)" font-size="9.9626" font-family="CMR10"><tspan y="-2.132" x="250.678 257.18357 262.44383 267.4251 270.1947 274.6181 283.47486 287.89826 293.70646 298.12986 302.55326 309.75624 313.6815 316.45109 320.87449">Poolede&#xfb00;ectsize</tspan><tspan y="-4.7609999" x="330.399">&#x00af;</tspan></text>
<text xml:space="preserve" transform="matrix(1.1 0 -0 1.1 -25.067795 324.20823)" font-size="9.9626" font-family="CMMI10" font-style="italic"><tspan y="-2.1319998" x="328.636">d</tspan></text>
<text xml:space="preserve" transform="matrix(1.1 0 -0 1.1 -25.067795 324.20823)" font-size="9.9626" font-family="CMR10"><tspan y="-2.1319998" x="336.589 347.1095">=0</tspan></text>
<text xml:space="preserve" transform="matrix(1.1 0 -0 1.1 -25.067795 324.20823)" font-size="9.9626" font-family="CMMI10" font-style="italic"><tspan y="-2.1319998" x="352.086">.</tspan></text>
<text xml:space="preserve" transform="matrix(1.1 0 -0 1.1 -25.067795 324.20823)" font-size="9.9626" font-family="CMR10"><tspan y="-2.1319998" x="354.854 359.8353">58</tspan></text>
</g>
</svg>
