<svg xmlns="http://www.w3.org/2000/svg" xmlns:xlink="http://www.w3.org/1999/xlink" xmlns:inkscape="http://www.inkscape.org/namespaces/inkscape" version="1.1" width="323.378" height="207.949" viewBox="0 0 323.378 207.949">
<path transform="matrix(1,0,0,-1,140.947,83.434009)" d="M-59.68214-24.24861H59.682149V52.59543H-59.68214Z" fill="#f2f2f3"/>
<path transform="matrix(1,0,0,-1,140.947,83.434009)" stroke-width=".79701" stroke-linecap="butt" stroke-miterlimit="10" stroke-linejoin="miter" fill="none" stroke="#000000" d="M-59.68214-24.24861H59.682149V52.59543H-59.68214Z"/>
<text xml:space="preserve" transform="matrix(1 0 -0 1 .0000076293949 207.949)" font-size="8.96638" font-family="MyriadPro"><tspan y="-124.515" x="110.581 115.44078 119.93294 124.25473 128.38823 131.3561 133.45423 137.6774 145.15537 148.70606 152.88439 156.43508 159.34914 163.8413">Reactivesystem</tspan></text>
<path transform="matrix(1,0,0,-1,260.30903,83.434009)" stroke-width=".79701" stroke-linecap="butt" stroke-miterlimit="10" stroke-linejoin="miter" fill="none" stroke="#000000" d="M-59.68214-24.24861H59.682149V52.59543H-59.68214Z"/>
<text xml:space="preserve" transform="matrix(1 0 -0 1 .000015258789 207.949)" font-size="8.96638" font-family="MyriadPro"><tspan y="-124.515" x="219.74 225.57712 230.49967 234.82146 236.93752 239.8516 244.77414 247.742 249.84014 254.33229 259.27278 262.18684 266.679 274.72184 278.27253 282.45088 286.00157 288.91563 293.40779">Goal-orientedsystem</tspan></text>
<text xml:space="preserve" transform="matrix(1 0 -0 1 .000015258789 207.949)" font-size="7.472" font-family="MyriadPro"><tspan y="-113.556" x="232.973 235.09506 238.47241 242.58948 244.35288 246.11627 248.41017 250.15862 254.27568 256.70408 260.44755 262.85353 266.45503 269.8996 272.37284 274.12129 277.7153 279.46376 282.00425 285.52357">(Full-interactivity)</tspan></text>
<path transform="matrix(1,0,0,-1,140.94702,160.27701)" stroke-width=".79701" stroke-linecap="butt" stroke-miterlimit="10" stroke-linejoin="miter" fill="none" stroke="#000000" d="M-59.68214-24.24861H59.682149V52.59543H-59.68214Z"/>
<text xml:space="preserve" transform="matrix(1 0 -0 1 .000022888184 207.949)" font-size="8.96638" font-family="MyriadPro"><tspan y="-47.672" x="100.529 104.62664 109.54919 112.508098 119.98605 122.73873 125.24932 130.16289 134.17983 139.1203 142.67099 147.16315 155.206 158.75669 162.93502 166.4857 169.39977 173.89192">Form-focusedsystem</tspan></text>
<text xml:space="preserve" transform="matrix(1 0 -0 1 .000022888184 207.949)" font-size="7.472" font-family="MyriadPro"><tspan y="-36.713" x="115.288 117.41005 121.033969 124.508449 127.46736 129.89577 133.63924 139.87088 142.2694 146.44625 150.56331 152.31175 156.52596 160.26943 164.48363">(System-guided)</tspan></text>
<path transform="matrix(1,0,0,-1,260.30903,160.27701)" d="M-59.68214-24.24861H59.682149V52.59543H-59.68214Z" fill="#f2f2f3"/>
<path transform="matrix(1,0,0,-1,260.30903,160.27701)" stroke-width=".79701" stroke-linecap="butt" stroke-miterlimit="10" stroke-linejoin="miter" fill="none" stroke="#000000" d="M-59.68214-24.24861H59.682149V52.59543H-59.68214Z"/>
<text xml:space="preserve" transform="matrix(1 0 -0 1 .000015258789 207.949)" font-size="8.96638" font-family="MyriadPro"><tspan y="-47.672" x="228.666 234.56587 238.88767 241.85553 244.7427 249.02864 251.9965 254.09464 258.3178 265.79579 269.34648 273.5248 277.0755 279.98957 284.48173">Narrativesystem</tspan></text>
<text xml:space="preserve" transform="matrix(1 0 -0 1 0 207.949)" font-size="8.96638" font-family="MyriadPro" font-weight="bold"><tspan y="-198.496" x="155.541 161.81746 164.27425 167.60974 172.344 176.5313 179.82196 182.27875 187.45235 194.51786 199.69145 204.5602 209.29445 214.63842 219.37267 224.73456 228.02523 230.48201 235.23419 237.69098 241.02648">Directionofadaptivity</tspan></text>
<text xml:space="preserve" transform="matrix(1 0 -0 1 .0000076293949 207.949)" font-size="8.96638" font-family="MyriadPro" font-style="italic"><tspan y="-183.438" x="123.405 129.44835 134.23639 138.38782 141.1405 147.3273 152.00775">One-way</tspan></text>
<text xml:space="preserve" transform="matrix(1 0 -0 1 0 207.949)" font-size="8.96638" font-family="MyriadPro" font-style="italic"><tspan y="-183.438" x="245.267 249.23014 255.49764 260.30363 263.0563 269.25209 273.93254">Two-way</tspan></text>
<text xml:space="preserve" transform="matrix(1 0 -0 1 .00000667572 207.949)" font-size="8.96638" font-family="MyriadPro" font-weight="bold"><tspan y="-104.804" x="2.988 7.4980895 12.178539 16.796227 21.530476">Level</tspan><tspan y="-97.133" x="2.988 8.161602 13.030347 18.257748 22.149157 26.883406">ofuser</tspan><tspan y="-89.462" x="2.988 6.9421737 12.115775 17.316277 20.597971 23.933465 29.107066">control</tspan></text>
<text xml:space="preserve" transform="matrix(1 0 -0 1 .0000076293949 207.949)" font-size="8.96638" font-family="MyriadPro" font-style="italic"><tspan y="-158.053" x="56.931 62.55292 64.606227 69.30461">High</tspan></text>
<text xml:space="preserve" transform="matrix(1 0 -0 1 .0000076293949 207.949)" font-size="7.472" font-family="MyriadPro" font-style="italic"><tspan y="-150.382" x="29.874 31.996048 35.92632 38.713376 42.09819 45.83419 47.54528 51.535329 53.246416 55.58515 57.29624 61.196626 63.535364 65.24645 68.58643 71.97125">(userinitiative)</tspan></text>
<text xml:space="preserve" transform="matrix(1 0 -0 1 .00001335144 207.949)" font-size="8.96638" font-family="MyriadPro" font-style="italic"><tspan y="-80.65" x="59.406 63.13601 67.75369">Low</tspan></text>
<text xml:space="preserve" transform="matrix(1 0 -0 1 .00001335144 207.949)" font-size="7.472" font-family="MyriadPro" font-style="italic"><tspan y="-72.979" x="21.752 23.874049 26.661105 29.956257 32.743314 35.052164 38.436979 45.826787 47.537874 51.52792 53.239007 55.577745 57.288835 61.189218 63.527956 65.239048 68.586498 71.97131">(systeminitiative)</tspan></text>
<path transform="matrix(1,0,0,-1,200.628,107.68201)" stroke-width="1.13385" stroke-linecap="butt" stroke-miterlimit="10" stroke-linejoin="miter" fill="none" stroke="#191919" d="M-77.87871 56.69362C-77.87871 60.64896-81.08508 63.85533-85.04042 63.85533-88.99576 63.85533-92.20213 60.64896-92.20213 56.69362-92.20213 52.73827-88.99576 49.5319-85.04042 49.5319-81.08508 49.5319-77.87871 52.73827-77.87871 56.69362ZM-85.04042 56.69362"/>
<text fill="#191919" xml:space="preserve" transform="matrix(1 0 -0 1 .0000076293949 207.949)" font-size="8.96638" font-family="MyriadPro" font-weight="bold"><tspan y="-153.987" x="112.531">U</tspan></text>
<path transform="matrix(1,0,0,-1,200.628,107.68201)" stroke-width=".79701" stroke-linecap="butt" stroke-miterlimit="10" stroke-linejoin="miter" fill="none" stroke="#333333" d="M-27.40553 56.69362C-27.40553 60.34456-30.36513 63.30417-34.01608 63.30417-37.66702 63.30417-40.62663 60.34456-40.62663 56.69362-40.62663 53.04266-37.66702 50.08307-34.01608 50.08307-30.36513 50.08307-27.40553 53.04266-27.40553 56.69362ZM-34.01608 56.69362"/>
<text xml:space="preserve" transform="matrix(1 0 -0 1 .000015258789 207.949)" font-size="8.96638" font-family="MyriadPro"><tspan y="-153.938" x="164.402">S</tspan></text>
<path transform="matrix(1,0,0,-1,200.628,107.68201)" stroke-width=".79701" stroke-linecap="butt" stroke-miterlimit="10" stroke-linejoin="miter" fill="none" stroke="#000000" d="M-77.31178 58.68617H-45.6876"/>
<path transform="matrix(1,0,0,-1,154.9404,48.99584)" d="M4.66248 0C3.28098 .25902 1.0361 1.0361-.51805 1.94269V-1.94269C1.0361-1.0361 3.28098-.25902 4.66248 0"/>
<path transform="matrix(1,0,0,-1,200.628,107.68201)" stroke-width=".79701" stroke-linecap="butt" stroke-dasharray=".79701,1.99255" stroke-miterlimit="10" stroke-linejoin="miter" fill="none" stroke="#000000" d="M-41.02513 54.70107H-57.70515"/>
<path transform="matrix(-1,-0,0,1,142.92285,52.980939)" d="M4.66248 0C3.28098 .25902 1.0361 1.0361-.51805 1.94269V-1.94269C1.0361-1.0361 3.28098-.25902 4.66248 0"/>
<path transform="matrix(1,0,0,-1,200.628,107.68201)" stroke-width="1.13385" stroke-linecap="butt" stroke-miterlimit="10" stroke-linejoin="miter" fill="none" stroke="#191919" d="M41.1778 56.69362C41.1778 60.64896 37.97142 63.85533 34.01608 63.85533 30.06073 63.85533 26.85437 60.64896 26.85437 56.69362 26.85437 52.73827 30.06073 49.5319 34.01608 49.5319 37.97142 49.5319 41.1778 52.73827 41.1778 56.69362ZM34.01608 56.69362"/>
<text fill="#191919" xml:space="preserve" transform="matrix(1 0 -0 1 0 207.949)" font-size="8.96638" font-family="MyriadPro" font-weight="bold"><tspan y="-153.987" x="231.586">U</tspan></text>
<path transform="matrix(1,0,0,-1,200.628,107.68201)" stroke-width=".79701" stroke-linecap="butt" stroke-miterlimit="10" stroke-linejoin="miter" fill="none" stroke="#333333" d="M91.65097 56.69362C91.65097 60.34456 88.69138 63.30417 85.04042 63.30417 81.38947 63.30417 78.42987 60.34456 78.42987 56.69362 78.42987 53.04266 81.38947 50.08307 85.04042 50.08307 88.69138 50.08307 91.65097 53.04266 91.65097 56.69362ZM85.04042 56.69362"/>
<text xml:space="preserve" transform="matrix(1 0 -0 1 0 207.949)" font-size="8.96638" font-family="MyriadPro"><tspan y="-153.938" x="283.457">S</tspan></text>
<path transform="matrix(1,0,0,-1,200.628,107.68201)" stroke-width=".79701" stroke-linecap="butt" stroke-miterlimit="10" stroke-linejoin="miter" fill="none" stroke="#000000" d="M41.74472 58.68617H73.3689"/>
<path transform="matrix(1,0,0,-1,273.9969,48.99584)" d="M4.66248 0C3.28098 .25902 1.0361 1.0361-.51805 1.94269V-1.94269C1.0361-1.0361 3.28098-.25902 4.66248 0"/>
<path transform="matrix(1,0,0,-1,200.628,107.68201)" stroke-width=".79701" stroke-linecap="butt" stroke-miterlimit="10" stroke-linejoin="miter" fill="none" stroke="#000000" d="M78.03137 54.70107H46.4072"/>
<path transform="matrix(-1,-0,0,1,247.0352,52.980939)" d="M4.66248 0C3.28098 .25902 1.0361 1.0361-.51805 1.94269V-1.94269C1.0361-1.0361 3.28098-.25902 4.66248 0"/>
<path transform="matrix(1,0,0,-1,200.628,107.68201)" stroke-width=".79701" stroke-linecap="butt" stroke-miterlimit="10" stroke-linejoin="miter" fill="none" stroke="#333333" d="M-78.42987-21.2601C-78.42987-17.60915-81.38947-14.64955-85.04042-14.64955-88.69138-14.64955-91.65097-17.60915-91.65097-21.2601-91.65097-24.91104-88.69138-27.87065-85.04042-27.87065-81.38947-27.87065-78.42987-24.91104-78.42987-21.2601ZM-85.04042-21.2601"/>
<text xml:space="preserve" transform="matrix(1 0 -0 1 .0000076293949 207.949)" font-size="8.96638" font-family="MyriadPro"><tspan y="-75.985" x="113.379">S</tspan></text>
<path transform="matrix(1,0,0,-1,200.628,107.68201)" stroke-width="1.13385" stroke-linecap="butt" stroke-miterlimit="10" stroke-linejoin="miter" fill="none" stroke="#191919" d="M-26.85437-21.2601C-26.85437-17.30475-30.06073-14.09839-34.01608-14.09839-37.97142-14.09839-41.1778-17.30475-41.1778-21.2601-41.1778-25.21544-37.97142-28.42181-34.01608-28.42181-30.06073-28.42181-26.85437-25.21544-26.85437-21.2601ZM-34.01608-21.2601"/>
<text fill="#191919" xml:space="preserve" transform="matrix(1 0 -0 1 .000015258789 207.949)" font-size="8.96638" font-family="MyriadPro" font-weight="bold"><tspan y="-76.035" x="163.555">U</tspan></text>
<path transform="matrix(1,0,0,-1,200.628,107.68201)" stroke-width=".79701" stroke-linecap="butt" stroke-miterlimit="10" stroke-linejoin="miter" fill="none" stroke="#000000" d="M-78.03137-19.26755H-46.4072"/>
<path transform="matrix(1,0,0,-1,154.22081,126.949558)" d="M4.66248 0C3.28098 .25902 1.0361 1.0361-.51805 1.94269V-1.94269C1.0361-1.0361 3.28098-.25902 4.66248 0"/>
<path transform="matrix(1,0,0,-1,200.628,107.68201)" stroke-width=".79701" stroke-linecap="butt" stroke-dasharray=".79701,1.99255" stroke-miterlimit="10" stroke-linejoin="miter" fill="none" stroke="#000000" d="M-41.74472-23.25266H-58.42474"/>
<path transform="matrix(-1,-0,0,1,142.20326,130.93466)" d="M4.66248 0C3.28098 .25902 1.0361 1.0361-.51805 1.94269V-1.94269C1.0361-1.0361 3.28098-.25902 4.66248 0"/>
<path transform="matrix(1,0,0,-1,200.628,107.68201)" stroke-width=".79701" stroke-linecap="butt" stroke-miterlimit="10" stroke-linejoin="miter" fill="none" stroke="#333333" d="M40.62663-21.2601C40.62663-17.60915 37.66702-14.64955 34.01608-14.64955 30.36513-14.64955 27.40553-17.60915 27.40553-21.2601 27.40553-24.91104 30.36513-27.87065 34.01608-27.87065 37.66702-27.87065 40.62663-24.91104 40.62663-21.2601ZM34.01608-21.2601"/>
<text xml:space="preserve" transform="matrix(1 0 -0 1 0 207.949)" font-size="8.96638" font-family="MyriadPro"><tspan y="-75.985" x="232.434">S</tspan></text>
<path transform="matrix(1,0,0,-1,200.628,107.68201)" stroke-width="1.13385" stroke-linecap="butt" stroke-miterlimit="10" stroke-linejoin="miter" fill="none" stroke="#191919" d="M92.20213-21.2601C92.20213-17.30475 88.99576-14.09839 85.04042-14.09839 81.08508-14.09839 77.87871-17.30475 77.87871-21.2601 77.87871-25.21544 81.08508-28.42181 85.04042-28.42181 88.99576-28.42181 92.20213-25.21544 92.20213-21.2601ZM85.04042-21.2601"/>
<text fill="#191919" xml:space="preserve" transform="matrix(1 0 -0 1 .000030517579 207.949)" font-size="8.96638" font-family="MyriadPro" font-weight="bold"><tspan y="-76.035" x="282.61">U</tspan></text>
<path transform="matrix(1,0,0,-1,200.628,107.68201)" stroke-width=".79701" stroke-linecap="butt" stroke-miterlimit="10" stroke-linejoin="miter" fill="none" stroke="#000000" d="M41.02513-19.26755H72.6493"/>
<path transform="matrix(1,0,0,-1,273.2773,126.949558)" d="M4.66248 0C3.28098 .25902 1.0361 1.0361-.51805 1.94269V-1.94269C1.0361-1.0361 3.28098-.25902 4.66248 0"/>
<path transform="matrix(1,0,0,-1,200.628,107.68201)" stroke-width=".79701" stroke-linecap="butt" stroke-dasharray="2.98883,2.98883" stroke-miterlimit="10" stroke-linejoin="miter" fill="none" stroke="#000000" d="M77.31178-23.25266H45.6876"/>
<path transform="matrix(-1,-0,0,1,246.31562,130.93466)" d="M4.66248 0C3.28098 .25902 1.0361 1.0361-.51805 1.94269V-1.94269C1.0361-1.0361 3.28098-.25902 4.66248 0"/>
<text xml:space="preserve" transform="matrix(1 0 -0 1 .0000076293949 207.94899)" font-size="6.22667" font-family="MyriadPro"><tspan y="-11.762" x="126.502 130.88558 135.91672 138.38248 141.2841 143.74987 145.77355 148.89311 154.08615 156.6889 162.03762 167.06876 170.49965 172.96541 176.08498 177.7973">S=system,U=user,</tspan></text>
<text xml:space="preserve" transform="matrix(1 0 -0 1 .0000076293949 207.94899)" font-size="5.97758" font-family="CMSY6" font-style="italic"><tspan y="-11.762" x="180.406 184.88919">&#x2212;&#x2192;</tspan></text>
<text xml:space="preserve" transform="matrix(1 0 -0 1 .0000076293949 207.94899)" font-size="6.22667" font-family="MyriadPro"><tspan y="-11.762" x="193.515 198.54615 200.00319 203.43408 205.45777 208.57733 210.76912 213.70188 216.82144 220.25234 222.31337 223.77042 227.18886 231.9647 233.42176 236.87755 238.50583 240.1341 243.56499 246.68456 250.14035 252.9299 254.38695 257.84275 262.64353 264.70457 268.16038 272.6 274.05705 277.48796 279.51164 282.6312 284.69224 286.1617 289.58015 292.3697 295.8006 297.82429 301.24275 303.46568 304.30625 308.09208 310.1531 313.584 315.64506 319.10087">=interventioninfluencingtheinterlocutor&#x2019;sturn,</tspan></text>
<path transform="matrix(.60878,0,0,-.60878,159.48274,202.62042)" stroke-width=".3985" stroke-linecap="butt" stroke-dasharray=".3985,1.99255" stroke-miterlimit="10" stroke-linejoin="miter" fill="none" stroke="#000000" d="M0 0H11.3576"/>
<path transform="matrix(.60878,0,0,-.60878,166.39702,202.62042)" d="M3.58653 0C2.52383 .19925 .797 .797-.3985 1.49438V-1.49438C.797-.797 2.52383-.19925 3.58653 0"/>
<text xml:space="preserve" transform="matrix(1 0 -0 1 0 207.94899)" font-size="6.22667" font-family="MyriadPro"><tspan y="-4.29" x="170.022 175.04692 176.50397 179.94109 181.96477 185.08434 187.2699 190.20888 193.32845 196.75934 198.82038 200.27742 203.69586 208.46549 211.92128 214.87895 217.87398 219.33103 222.78682 227.58136 231.03716 234.4556 236.59134 238.06084 239.51789 244.71092 246.16797 248.19788 251.31745 256.1431 257.60014 261.05595 262.6842 264.3125 267.7434 270.86299 274.3188 277.0772 281.5106 284.92903 289.7049 291.16194 294.59907 296.62275 299.7423 301.79713 303.2666 306.68507 309.4746 312.90553 314.93544 318.35389">=interventionhavingno/limitedinfluenceoninterlocutor</tspan></text>
<path transform="matrix(1,0,0,-1,200.628,107.68201)" stroke-width="1.49442" stroke-linecap="butt" stroke-dasharray="1.49442,1.99255" stroke-miterlimit="10" stroke-linejoin="miter" fill="none" stroke="#939598" d="M-11.33855-11.33855 9.7482 9.7482"/>
<path transform="matrix(.7071,-.7071,-.7071,-.7071,210.37619,97.93382)" stroke-width="1.49442" stroke-linecap="round" stroke-miterlimit="10" stroke-linejoin="miter" fill="none" stroke="#939598" d="M-5.85403 2.62762 .33623 0-5.85403-2.62762"/>
<text fill="#939598" xml:space="preserve" transform="matrix(1 0 -0 1 .0000076293949 207.949)" font-size="7.472" font-family="MyriadPro" font-weight="bold"><tspan y="-102.47" x="125.304 130.50452 134.44974 138.82086 141.60045 145.54567 151.00023 155.31157 159.36887 161.4162 165.74996 168.45482 172.40004 175.1572 179.10242 182.59185 185.33406 187.3814 191.34156 193.38889 196.16846">Degreeofinteractivity</tspan></text>
</svg>
